P2
60 72
255
126 128 130 131 127 130 126 129 125 124 125 123 124 123 124 124 123 125 127 
127 128 126 121 121 120 123 127 125 122 125 127 124 124 128 131 131 131 129 
130 126 123 119 123 122 124 124 128 133 133 130 129 129 123 122 124 122 126 
128 124 123 129 127 127 129 130 135 133 134 130 128 124 127 127 129 126 124 
126 131 133 132 128 130 123 125 123 126 128 128 130 130 131 127 127 131 133 
132 132 131 129 126 127 126 124 124 130 131 131 132 133 130 129 130 126 127 
124 123 128 128 122 125 128 128 130 132 133 130 130 134 130 131 135 132 130 
131 129 125 129 132 130 129 132 135 130 127 130 132 129 130 131 135 138 135 
133 128 129 134 136 135 131 128 127 125 123 124 126 129 131 131 131 133 133 
129 125 126 123 123 125 124 127 123 126 130 130 128 131 129 128 128 132 133 
135 137 130 127 133 130 129 131 127 131 131 132 134 126 131 136 136 140 130 
115 97 79 72 67 67 70 73 89 105 122 127 127 127 125 124 127 129 130 
130 132 133 131 126 125 126 124 123 128 132 127 129 132 132 130 131 134 133 
136 136 136 139 139 134 130 128 128 131 133 134 136 132 133 137 131 137 145 
125 89 67 57 49 49 48 50 50 49 42 41 38 48 67 103 131 127 129 
129 135 128 135 137 134 133 128 126 127 125 124 127 132 129 133 135 131 134 
135 133 132 140 143 144 140 141 141 137 135 136 140 136 135 141 133 137 138 
139 138 100 56 50 71 81 61 54 50 48 46 45 37 42 50 45 37 31 
53 108 132 131 131 132 138 135 131 130 126 123 129 129 128 127 132 131 136 
138 134 137 135 137 138 144 142 144 141 142 140 142 138 146 143 140 140 145 
141 137 145 132 86 56 70 72 90 84 70 67 62 55 55 47 40 32 31 
36 50 44 24 22 80 136 135 133 139 137 135 133 131 134 129 128 130 130 
135 134 135 139 141 140 141 142 141 145 141 140 140 137 141 140 144 145 144 
144 142 143 145 143 130 83 70 77 79 81 103 88 79 75 70 69 59 51 
47 41 34 26 24 32 39 24 14 63 136 136 135 138 140 137 138 136 131 
130 129 132 139 137 145 142 144 143 145 146 145 147 144 144 145 139 141 144 
148 143 146 146 143 144 148 140 81 68 79 82 84 90 102 87 78 74 72 
65 60 55 50 44 38 32 29 22 23 28 25 12 69 142 137 141 145 141 
138 133 130 131 133 132 135 135 145 145 140 142 143 145 147 150 149 147 147 
143 139 148 147 149 146 148 147 148 155 100 60 72 81 89 106 127 134 120 
107 98 89 73 59 54 50 44 38 31 33 25 22 25 30 22 11 82 145 
150 139 141 142 135 135 137 139 134 134 135 143 144 144 142 144 148 150 153 
149 147 145 145 141 144 147 147 150 153 151 153 131 65 72 104 133 153 166 
168 167 165 153 149 139 127 98 70 56 49 42 36 32 26 24 25 22 20 
17 18 116 146 137 141 144 145 144 144 142 138 139 142 143 147 144 147 148 
152 153 155 149 149 145 145 146 148 152 153 154 152 149 148 83 61 115 144 
161 172 179 181 180 174 170 159 147 140 123 94 73 58 46 39 33 27 25 
25 25 21 20 15 37 139 142 145 145 148 142 147 147 142 143 147 150 147 
147 152 151 156 154 152 149 148 148 149 153 152 153 156 157 157 150 121 58 
84 141 159 182 189 194 190 192 192 184 177 168 160 138 114 93 75 54 43 
36 27 22 22 24 24 20 21 10 82 149 147 146 145 145 145 147 150 149 
146 154 151 154 152 151 157 154 155 152 153 154 155 150 151 151 156 156 154 
145 70 51 118 158 181 191 191 192 196 196 193 190 183 174 164 151 131 106 
85 63 48 41 32 21 19 20 20 20 17 16 35 136 149 145 143 147 143 
143 148 152 148 154 154 152 157 154 159 154 158 154 157 160 158 152 153 155 
160 156 157 101 32 64 132 160 182 189 192 192 193 192 192 192 187 178 171 
158 136 109 91 74 57 44 33 35 27 19 20 21 18 18 11 92 150 149 
143 139 143 148 152 150 151 162 161 162 161 156 161 154 158 153 158 159 157 
154 151 160 160 159 143 84 34 76 138 157 180 189 187 188 187 191 193 187 
184 175 167 149 135 117 99 85 66 48 39 37 30 25 24 20 19 17 11 
49 148 142 135 136 140 148 142 143 146 165 163 167 168 160 159 153 153 155 
160 159 158 153 152 160 162 155 116 81 33 77 137 161 179 177 182 178 180 
183 185 180 178 167 155 145 138 124 111 94 78 63 44 28 23 21 22 19 
18 14 14 23 124 119 119 135 134 141 126 134 140 167 165 171 166 161 161 
154 151 158 162 162 154 153 160 166 166 128 86 49 41 95 139 162 177 175 
181 180 181 177 180 180 177 166 154 147 144 133 126 112 103 87 54 27 27 
26 24 20 17 14 15 15 81 112 110 127 121 124 122 128 142 152 146 164 
170 165 165 157 155 156 164 161 159 166 167 168 159 112 63 48 40 113 144 
160 168 174 181 183 184 181 182 180 175 171 162 156 153 148 141 134 119 96 
57 31 29 27 21 23 19 18 16 14 60 111 97 111 110 107 110 128 143 
141 143 145 162 169 167 162 164 163 168 169 169 170 172 171 149 100 50 44 
38 115 151 167 174 173 178 182 182 184 180 180 175 169 166 164 159 149 148 
138 123 96 58 36 26 22 22 19 22 21 18 12 48 103 89 97 98 93 
107 122 127 133 128 123 147 148 152 167 170 170 171 169 171 171 181 174 135 
98 43 46 42 119 154 167 167 166 176 178 178 184 179 162 140 140 146 150 
153 144 137 124 109 88 57 35 31 26 22 19 25 24 21 15 41 96 75 
84 103 112 114 116 108 122 115 126 117 112 126 139 163 170 168 168 170 172 
172 167 114 87 47 39 42 111 153 144 128 118 140 171 171 175 150 109 95 
101 111 109 105 111 103 93 90 83 61 34 28 27 24 21 26 26 23 22 
34 82 70 84 95 99 116 108 108 107 104 112 100 112 117 114 127 166 163 
163 167 169 159 148 99 79 61 52 51 86 97 107 120 116 104 141 170 156 
117 72 80 117 132 120 94 65 58 59 75 83 65 40 31 29 25 23 22 
22 22 23 25 74 73 82 83 81 99 104 103 98 92 95 100 106 127 117 
106 163 168 168 166 168 153 144 95 68 56 53 52 76 70 100 92 60 92 
118 171 158 93 82 108 131 95 54 70 74 61 72 110 107 77 45 30 33 
28 24 20 24 23 22 24 75 78 76 73 82 94 102 98 98 98 95 99 
109 127 102 122 164 163 152 133 153 145 146 112 52 49 44 44 118 113 142 
140 101 110 136 182 158 93 107 142 176 149 112 115 110 126 148 149 119 81 
47 29 32 30 21 20 25 26 21 24 68 74 76 72 74 78 88 86 80 
83 96 96 105 115 85 139 152 145 113 95 103 133 146 96 50 52 36 46 
136 152 149 142 118 137 152 183 156 105 114 142 147 145 140 124 130 151 163 
148 118 77 42 26 28 29 22 19 23 28 22 21 64 72 72 74 79 87 
95 86 76 91 90 88 90 100 80 101 118 117 92 104 85 107 119 92 56 
42 34 41 149 175 177 165 158 171 163 170 157 119 128 160 172 170 173 175 
175 169 155 137 110 68 36 25 28 28 23 19 22 24 31 20 45 64 65 
72 80 93 101 93 85 85 89 79 71 87 74 78 87 94 91 104 79 89 
93 89 62 36 31 37 138 166 173 182 182 173 165 179 155 133 139 163 186 
189 193 187 178 163 142 125 98 59 32 25 26 25 27 26 20 21 31 22 
42 79 77 76 78 86 88 84 81 87 89 77 76 81 75 73 75 80 85 
95 72 84 77 81 60 44 36 33 118 160 173 180 180 170 173 188 155 137 
142 161 177 180 184 178 171 154 132 113 86 52 30 31 28 34 29 32 25 
24 30 24 42 100 92 92 89 93 94 88 77 88 75 73 74 73 70 76 
74 76 76 83 72 73 66 60 51 46 46 30 96 165 176 177 174 166 171 
182 158 134 134 160 168 174 179 171 163 145 121 99 79 45 32 26 29 31 
32 29 24 22 25 26 38 95 99 91 112 122 119 119 88 88 80 79 71 
70 74 79 73 69 71 69 66 60 55 53 46 42 40 25 79 153 167 174 
174 157 172 182 153 133 128 153 167 170 171 161 151 133 110 89 66 41 32 
30 31 30 33 28 24 24 22 28 29 53 61 63 68 81 88 88 89 91 
88 79 78 78 85 80 78 77 74 71 66 58 48 45 46 49 34 26 61 
130 160 168 163 140 169 181 135 117 110 142 176 170 166 153 139 118 98 84 
67 42 32 29 30 30 34 28 24 28 22 27 33 50 54 62 60 61 73 
74 91 91 89 80 85 79 77 77 75 74 77 72 66 57 48 53 41 37 
37 31 40 107 142 152 165 158 129 120 77 58 61 124 179 166 155 145 127 
110 92 76 59 43 31 29 24 28 31 27 27 27 20 26 32 42 49 60 
62 63 63 65 73 93 94 75 83 79 78 82 79 74 75 69 67 62 51 
47 45 30 33 33 37 94 124 135 159 182 172 95 64 71 92 140 158 146 
141 136 120 106 95 84 60 42 31 30 28 32 29 25 29 27 22 29 34 
44 56 61 60 65 63 65 76 86 84 76 78 78 77 83 78 74 74 70 
67 68 46 42 43 40 40 38 33 83 126 131 138 162 180 150 116 114 126 
130 115 119 135 137 123 107 95 85 61 41 30 26 30 28 33 32 28 24 
21 24 33 44 65 66 66 69 66 69 80 85 81 79 77 79 76 80 76 
74 67 68 62 70 57 47 44 44 46 38 33 62 129 141 121 105 121 131 
110 95 88 81 91 135 146 140 124 105 90 78 54 39 32 25 30 31 29 
25 25 22 22 27 33 38 64 65 74 72 70 70 79 78 70 73 73 79 
73 68 72 72 66 68 68 68 60 55 46 50 38 36 36 38 108 145 151 
169 164 155 144 126 108 116 139 144 148 137 118 98 85 71 51 37 35 31 
27 35 32 30 25 19 23 33 33 37 61 70 70 73 75 74 73 70 70 
69 66 69 72 71 73 75 74 77 80 81 62 60 50 47 36 33 35 25 
57 121 144 167 157 127 109 104 112 119 124 130 135 124 105 86 75 65 49 
38 31 29 33 30 28 27 24 18 22 32 33 46 59 74 70 71 76 78 
69 69 75 75 73 71 73 75 73 74 76 79 77 82 59 58 49 34 34 
33 36 35 29 63 116 149 162 159 143 137 134 129 121 123 121 106 87 73 
65 61 46 34 28 29 31 28 26 23 23 18 20 27 31 46 68 81 64 
67 77 78 72 73 73 73 75 85 85 85 88 87 89 89 92 100 75 68 
58 40 33 38 36 40 35 32 59 128 170 183 187 175 146 133 126 119 104 
85 72 66 61 58 40 32 32 27 29 30 27 28 25 22 26 32 34 42 
62 83 79 73 82 87 66 69 71 70 69 77 78 75 78 80 83 83 84 
94 75 64 53 41 40 45 41 43 33 36 31 62 139 174 175 158 140 129 
109 93 78 69 63 65 60 48 34 30 34 28 28 27 32 25 26 21 27 
28 33 42 53 79 82 81 83 100 68 64 72 66 68 74 72 70 77 77 
81 87 85 95 84 58 49 50 39 37 40 39 29 34 35 32 69 125 138 
125 112 97 78 65 65 66 64 54 44 41 39 36 31 24 27 24 28 33 
28 21 26 29 29 38 46 76 77 80 78 82 64 63 65 69 67 74 74 
80 86 86 93 104 112 114 101 54 49 48 38 32 27 31 21 28 29 37 
38 53 71 70 70 69 67 64 62 57 48 42 42 49 52 43 35 31 30 
30 28 31 26 22 24 29 28 36 44 74 73 66 64 73 70 68 70 78 
78 88 85 83 86 90 95 103 108 111 107 60 51 36 36 34 34 33 27 
22 29 31 36 36 44 54 53 53 53 54 47 45 45 48 53 54 51 48 
49 41 30 26 25 26 22 22 24 27 24 27 33 59 68 66 68 73 84 
86 89 92 90 94 93 98 111 116 109 110 107 106 110 77 54 37 37 34 
35 30 36 32 30 33 33 35 48 85 73 66 61 56 54 54 56 58 60 
60 64 70 65 48 33 30 27 24 24 26 26 31 27 27 34 60 67 74 
75 78 74 82 88 87 88 96 97 104 108 108 114 110 101 103 100 90 58 
41 37 43 36 39 35 30 33 37 38 37 49 115 106 93 85 72 60 61 
65 70 72 82 85 79 68 53 36 32 35 21 27 26 26 34 28 27 41 
70 69 74 69 71 95 97 100 101 102 106 106 93 105 103 106 105 104 103 
100 97 71 36 38 48 37 41 34 29 41 37 38 41 45 109 132 118 103 
87 81 78 79 77 84 92 99 93 81 60 45 32 33 26 25 24 25 33 
25 26 29 58 68 78 84 94 93 96 99 101 100 104 104 96 102 103 107 
101 98 102 95 92 69 42 41 37 39 39 35 34 38 36 41 43 43 96 
150 136 123 113 102 96 95 95 96 103 110 106 96 73 50 37 28 31 23 
25 28 36 31 23 16 40 67 80 89 99 88 87 92 73 80 93 111 99 
100 99 105 102 96 107 80 87 66 40 42 37 37 39 35 36 38 40 40 
51 50 83 143 141 138 130 116 111 111 112 113 122 124 119 107 94 55 47 
40 30 31 35 33 48 31 25 18 29 45 46 51 58 87 70 76 68 73 
57 89 89 95 88 80 100 84 77 74 67 50 36 37 31 29 34 32 36 
38 41 51 55 75 104 131 142 147 140 132 128 123 128 132 136 135 135 117 
104 70 44 43 38 38 43 37 62 31 24 21 19 31 32 39 51 89 65 
73 78 93 63 40 57 74 77 52 64 67 40 56 62 41 37 36 34 31 
34 34 40 45 52 64 92 122 135 139 149 151 148 147 147 142 146 147 144 
143 146 129 117 83 53 44 47 50 53 42 59 36 27 28 25 28 35 46 
55 74 80 81 80 93 69 44 58 43 58 60 57 62 44 43 54 38 35 
34 36 35 36 42 52 53 81 111 131 159 167 160 160 158 152 154 154 154 
159 164 161 155 155 147 135 96 65 49 43 48 66 46 57 34 31 32 32 
23 36 49 46 70 80 85 70 84 73 43 54 44 45 47 53 70 57 41 
37 31 33 35 34 43 41 47 60 95 124 131 153 164 175 173 166 170 162 
162 164 168 172 171 171 163 164 156 143 111 78 52 51 51 76 52 58 36 
37 32 34 29 31 56 71 61 80 87 83 78 57 44 51 57 41 38 56 
70 47 46 32 32 35 35 39 43 48 59 106 141 151 161 172 172 179 182 
176 176 173 172 176 182 182 177 177 170 164 153 140 98 62 54 45 66 75 
59 54 35 38 35 33 31 33 30 54 88 95 92 95 76 57 43 57 69 
35 37 55 66 45 40 28 32 31 33 37 44 53 95 144 157 170 179 184 
186 185 190 185 185 178 183 182 182 188 183 178 173 166 151 137 95 61 60 
61 75 76 55 45 31 34 37 39 34 30 27 47 97 105 93 79 75 53 
51 63 70 43 36 53 64 55 44 27 35 32 39 37 55 62 122 162 174 
178 186 190 192 187 197 193 190 184 182 185 188 191 185 181 174 164 154 148 
96 74 71 52 64 68 50 39 27 35 40 33 40 39 35 32 88 100 85 
71 66 63 64 59 71 60 41 55 66 56 39 28 32 34 37 50 67 85 
140 172 179 181 190 195 197 196 196 191 189 183 188 190 193 193 186 183 180 
164 153 141 115 72 75 54 59 72 46 33 29 33 36 35 47 40 36 34 
105 95 84 73 78 71 61 67 72 65 60 65 67 54 29 28 34 37 46 
61 72 114 158 182 188 190 192 200 201 194 187 190 190 185 191 193 195 193 
187 183 182 168 155 133 100 61 67 50 64 70 44 30 29 32 34 46 63 
54 49 47 106 99 95 82 73 71 67 77 80 66 67 63 52 24 27 31 
36 41 68 73 89 129 167 184 190 196 197 197 197 197 193 194 193 189 193 
198 196 190 187 182 175 172 153 130 82 61 68 60 64 71 39 24 31 36 
54 79 87 70 63 58 106 105 105 88 77 81 77 83 88 67 64 41 22 
27 29 37 36 59 83 104 94 139 175 188 192 194 200 200 200 197 196 190 
191 189 193 200 199 190 184 178 170 168 153 128 91 82 72 63 65 69 33 
33 55 71 72 73 71 64 64 52 122 113 113 100 86 70 72 81 83 62 
43 25 30 34 32 32 41 74 106 119 125 167 188 192 192 195 204 200 198 
198 197 196 197 192 196 198 197 194 189 181 175 172 153 128 89 77 66 57 
61 54 63 82 88 88 93 99 103 97 75 70 121 109 100 96 93 82 80 
81 71 40 28 32 38 38 33 33 55 91 130 139 165 181 193 193 196 195 
199 199 196 200 198 203 201 197 198 197 195 195 192 184 185 172 154 126 85 
77 58 62 69 90 108 113 109 107 113 110 114 115 99 82 106 113 114 101 
101 93 90 80 44 24 32 37 38 40 31 35 68 112 151 165 174 190 192 
197 199 195 194 197 198 200 205 206 202 201 202 201 200 200 197 189 173 163 
148 109 91 78 83 83 95 93 88 104 127 145 135 122 107 82 62 56 94 
105 88 94 116 118 110 63 31 33 34 37 42 37 31 46 77 131 160 171 
192 197 195 199 197 196 194 196 198 201 202 206 207 205 202 202 199 200 200 
192 176 164 139 120 99 102 94 83 90 107 132 145 124 97 73 63 55 48 
41 43 92 86 82 80 97 123 106 37 32 28 30 40 38 27 31 46 69 
110 169 192 196 199 203 198 188 194 188 193 198 206 210 210 211 210 208 205 
204 205 203 194 182 168 151 130 117 94 87 110 133 127 105 72 49 41 37 
38 31 27 28 23 86 93 96 101 118 121 64 27 29 32 33 37 37 28 
38 57 70 80 140 185 196 196 200 200 190 187 184 193 200 208 212 208 212 
214 213 209 207 209 203 195 189 168 150 132 101 99 112 107 81 57 45 38 
42 50 41 40 32 29 29 23 123 129 132 125 104 67 32 36 30 29 30 
45 37 34 48 57 77 80 92 126 162 190 200 198 187 177 189 198 205 207 
210 212 211 209 209 211 205 202 199 193 179 151 124 110 98 86 65 57 43 
38 45 52 41 33 27 27 21 18 18 21 114 108 95 87 51 28 35 34 
27 23 44 45 32 41 48 63 82 86 89 99 90 109 147 174 164 172 191 
205 210 207 205 205 205 207 208 206 200 195 196 176 139 115 104 92 70 50 
40 41 41 49 41 25 19 21 24 30 29 25 21 21 94 88 86 54 29 
36 41 34 26 31 51 39 36 53 53 72 84 79 77 90 87 93 91 90 
102 131 161 184 200 203 204 204 204 207 206 199 194 187 166 135 103 87 95 
79 50 40 47 46 42 37 29 29 24 43 41 38 41 32 25 21 93 83 
78 29 35 43 40 37 29 39 44 36 43 61 73 79 85 73 79 69 81 
92 87 84 90 91 94 104 111 124 136 152 162 170 173 177 169 141 112 99 
95 82 68 52 51 49 37 32 32 29 38 38 43 62 47 43 46 39 26 
21 91 86 59 27 43 45 45 44 37 46 44 41 48 66 70 76 70 73 
61 64 73 80 72 87 92 100 103 105 100 97 97 98 101 99 103 104 106 
95 99 95 65 55 83 60 34 29 27 28 28 27 49 51 64 62 44 49 
42 37 28 24 124 120 62 35 47 43 47 41 40 41 45 43 56 70 68 
65 71 63 45 79 76 63 76 93 94 95 90 92 96 98 94 94 96 92 
93 100 90 92 95 59 58 71 45 22 17 21 29 34 31 40 44 65 71 
48 49 45 40 32 28 23 