P2
90 40
255
43 60 83 74 63 81 71 46 79 57 37 51 87 138 98 93 93 56 34 
38 33 35 51 127 148 101 102 150 172 152 126 156 187 175 181 188 192 193 
180 168 164 161 160 162 171 179 181 171 160 163 172 173 184 185 192 195 193 
195 202 200 199 198 200 203 205 204 205 202 191 173 140 102 87 61 40 44 
45 83 69 96 150 149 162 140 66 47 43 45 45 45 47 50 59 82 68 
67 69 58 81 65 52 55 69 139 67 50 56 46 40 33 31 46 128 152 
117 115 155 179 162 160 127 147 181 177 172 193 186 183 174 167 163 162 159 
165 176 183 167 155 160 169 173 178 185 189 192 197 194 198 203 202 199 202 
204 204 210 208 208 208 198 179 153 111 93 70 42 42 44 65 77 77 147 
152 167 137 61 45 49 43 50 47 49 49 47 65 72 60 62 65 85 62 
67 53 60 131 72 41 36 36 32 31 40 110 159 117 115 156 184 167 164 
162 137 146 164 164 172 189 176 180 169 171 171 165 165 170 177 157 149 160 
165 172 176 183 187 194 194 200 195 200 202 200 200 202 203 208 208 209 210 
209 204 189 159 122 97 78 46 35 40 52 73 66 124 155 172 143 63 51 
54 47 52 56 45 48 55 48 55 62 55 56 91 91 97 53 47 102 98 
39 38 33 34 37 99 156 128 111 156 177 171 167 165 165 141 154 175 163 
179 192 188 178 165 169 171 171 171 169 154 149 162 167 169 172 178 188 184 
193 194 197 197 200 199 202 200 204 207 208 208 210 209 213 205 193 170 133 
103 80 55 45 38 43 56 71 91 151 167 151 82 54 56 45 49 51 45 
53 57 46 50 62 52 53 75 106 119 76 53 74 119 43 31 31 36 92 
156 134 119 150 181 172 181 171 167 169 144 154 170 173 182 191 191 174 167 
167 169 167 163 150 150 155 164 169 169 175 182 192 190 191 195 199 198 197 
203 202 202 203 208 208 209 209 212 210 205 198 177 143 107 81 59 43 32 
40 50 79 72 157 165 150 90 55 53 57 49 54 50 56 54 50 60 56 
42 62 88 90 75 96 85 92 150 74 31 33 78 148 133 119 141 184 169 
178 181 179 176 177 151 152 162 170 187 198 191 170 167 169 161 159 149 152 
157 160 167 171 169 176 183 188 193 194 194 196 199 200 202 205 203 200 207 
209 208 209 210 212 210 200 183 151 110 88 66 43 33 38 44 73 65 155 
164 148 94 59 53 50 52 59 51 57 48 53 72 56 38 49 100 69 71 
67 43 52 136 68 30 64 140 140 116 129 174 168 171 177 188 186 179 179 
149 140 163 172 190 197 176 164 161 164 161 151 156 155 163 169 171 171 171 
175 184 187 194 194 195 196 199 200 203 203 204 205 207 208 209 210 210 212 
212 205 188 158 121 97 71 50 40 40 42 55 73 128 168 153 104 61 47 
47 52 57 52 50 43 67 63 61 45 50 69 48 79 51 33 36 95 105 
51 130 142 117 129 168 161 165 172 176 189 184 185 179 148 127 172 183 193 
182 170 159 157 162 152 157 162 160 167 171 172 173 174 174 181 184 193 193 
193 196 198 197 204 203 203 204 207 207 209 207 215 215 215 208 194 164 132 
99 84 58 44 43 41 50 82 102 167 166 102 53 46 48 54 56 51 49 
43 79 50 78 50 43 43 60 94 51 33 31 50 107 123 152 121 120 161 
165 162 159 165 178 188 183 187 182 161 127 170 189 182 167 159 153 153 155 
157 158 162 163 171 171 171 174 176 178 181 185 192 194 196 196 199 197 197 
200 202 202 205 207 209 208 212 212 212 209 200 173 139 105 92 70 47 43 
40 43 85 88 167 169 98 60 62 45 53 58 56 41 46 93 40 57 71 
55 55 46 116 63 31 31 39 90 134 116 114 157 174 156 162 159 162 170 
187 187 183 184 175 151 178 180 165 163 157 155 160 165 160 159 164 165 169 
172 172 174 175 180 177 183 191 190 195 197 195 195 195 196 200 202 203 203 
207 208 209 212 212 207 200 183 146 109 92 72 47 37 41 45 74 78 158 
171 114 66 54 47 51 56 57 42 51 86 40 52 99 57 46 82 69 40 
43 34 74 135 103 98 149 174 162 163 165 158 159 170 188 189 182 187 179 
173 180 172 162 155 155 160 164 164 164 163 167 167 171 178 175 175 176 176 
175 179 185 188 193 197 196 194 194 197 199 200 202 204 205 208 208 212 212 
209 207 187 152 113 92 71 45 38 41 44 67 74 146 174 124 73 62 53 
60 66 55 48 63 72 37 46 105 49 42 91 45 54 44 51 133 125 93 
140 182 165 170 175 169 161 157 174 187 188 185 188 180 179 175 143 117 129 
142 147 155 160 165 165 169 172 173 175 177 179 177 177 177 181 182 185 191 
194 195 194 195 193 197 198 202 202 204 204 209 212 210 207 203 188 157 114 
80 60 45 38 40 43 56 64 139 177 135 72 71 55 66 65 52 50 61 
51 40 68 100 47 63 80 60 42 41 115 145 100 121 187 172 167 177 181 
167 155 152 171 190 193 194 190 187 167 104 75 92 107 113 127 135 138 144 
153 165 170 174 179 180 178 175 175 175 176 180 182 188 195 195 194 192 191 
194 196 198 200 199 203 207 207 207 203 194 175 146 102 64 51 49 38 38 
40 54 68 122 179 145 79 60 59 63 58 47 61 71 61 52 72 84 54 
72 48 35 34 90 147 105 110 172 175 169 175 185 188 161 153 157 179 191 
194 195 192 159 103 98 105 107 102 96 100 85 96 109 120 140 154 167 175 
182 178 176 176 176 171 175 182 185 193 194 194 187 188 191 193 195 200 200 
203 207 204 201 188 166 145 115 85 59 51 43 38 38 40 57 74 99 184 
149 103 54 52 70 61 43 41 69 96 53 81 62 63 65 39 37 64 141 
124 101 159 172 169 178 182 194 184 155 155 167 184 188 194 190 151 124 132 
146 144 144 135 126 112 91 65 66 67 85 103 136 156 171 175 173 178 174 
171 175 177 187 191 194 193 187 189 190 192 193 200 198 197 199 186 165 140 
117 106 92 73 60 55 43 40 41 43 54 63 86 179 157 115 55 49 59 
66 41 34 43 77 87 100 41 83 48 34 42 122 150 106 147 186 163 173 
181 192 195 168 149 162 177 190 196 187 138 119 135 145 153 147 144 157 153 
141 123 107 86 77 67 64 73 100 141 163 169 169 167 171 173 176 184 188 
192 190 187 188 194 193 190 193 185 169 143 114 97 84 78 87 101 98 95 
85 52 48 43 42 48 64 82 178 154 127 63 56 54 72 41 40 40 57 
74 108 47 64 34 31 86 151 129 133 184 169 169 177 189 197 188 159 156 
174 190 196 182 120 116 128 127 138 137 137 108 145 158 147 124 130 100 97 
90 82 79 84 106 136 163 163 165 168 169 173 182 188 192 193 189 186 189 
186 181 179 149 114 90 91 104 102 115 117 132 110 102 86 59 55 43 40 
45 67 75 173 154 121 72 52 52 72 41 47 42 41 42 54 75 35 33 
57 144 122 118 179 174 167 176 188 196 197 179 164 166 184 197 169 104 101 
110 107 107 113 111 106 60 99 141 113 95 100 103 122 103 112 102 106 106 
127 146 155 157 163 163 169 182 189 194 194 193 189 191 185 170 152 121 116 
109 114 113 89 88 104 98 81 79 72 61 67 46 42 47 70 71 168 159 
119 90 48 50 71 45 43 45 45 43 38 44 46 34 110 144 105 163 181 
168 171 181 195 202 195 180 172 180 197 158 85 88 89 85 92 68 66 66 
61 48 61 78 54 49 57 84 118 101 127 121 119 119 125 137 147 155 160 
155 167 180 193 192 195 193 192 190 183 161 139 124 116 84 68 57 53 53 
62 61 64 71 65 72 51 43 37 46 75 66 167 161 115 96 55 48 71 
41 41 46 47 38 36 37 32 74 156 120 134 189 169 172 177 190 199 197 
188 184 181 195 147 74 75 72 65 53 58 53 53 50 49 50 51 53 52 
44 40 46 61 116 140 128 128 127 129 138 143 149 155 157 169 180 191 194 
198 199 197 190 169 133 88 68 57 51 53 52 47 47 52 56 55 58 66 
63 43 45 38 40 77 58 163 169 119 95 73 50 68 67 34 40 45 43 
37 33 42 131 135 116 182 173 168 174 182 192 202 194 189 190 191 154 73 
66 64 54 51 52 52 53 48 45 44 45 62 91 82 55 43 40 41 61 
109 135 131 126 128 135 141 147 151 157 167 182 192 200 202 204 198 174 119 
71 56 52 56 52 68 68 53 49 52 58 59 56 58 52 45 45 40 45 
69 58 156 169 117 97 69 59 65 94 82 54 41 36 34 33 93 150 104 
159 190 167 172 176 182 198 200 196 191 195 157 75 75 65 54 45 48 49 
49 48 49 43 52 59 95 164 164 111 63 41 40 43 74 120 132 127 128 
135 138 143 149 157 164 181 194 205 206 208 188 107 53 50 45 52 61 80 
110 128 91 50 41 49 54 56 54 43 50 47 39 45 73 55 154 176 120 
90 65 61 71 45 59 79 52 37 33 50 141 121 120 191 169 172 179 177 
186 204 198 195 198 163 85 86 75 59 48 43 55 77 59 60 57 34 53 
77 82 185 197 180 143 72 54 90 73 112 126 120 123 133 137 144 144 155 
165 178 200 211 213 206 133 63 51 48 45 50 69 138 113 161 126 73 46 
43 53 53 54 47 47 45 38 51 72 49 150 173 121 94 83 65 76 41 
50 50 40 54 68 101 141 101 178 185 167 175 184 186 200 202 198 200 181 
99 98 87 68 53 50 45 65 100 79 74 89 55 66 93 65 185 203 200 
189 135 75 109 101 100 117 114 120 126 135 138 142 155 169 187 202 218 216 
169 93 69 56 72 50 53 70 89 107 171 149 89 60 45 52 46 51 48 
46 54 44 52 77 48 149 172 133 82 92 68 82 38 43 37 37 35 63 
118 94 131 178 154 150 164 178 193 202 198 194 185 115 104 116 106 91 81 
58 45 73 102 115 66 79 87 81 62 119 205 208 206 203 167 100 88 119 
97 109 112 117 123 130 137 145 160 171 188 209 216 205 139 93 110 67 94 
88 81 92 66 135 170 148 97 62 44 43 41 47 45 46 45 41 56 77 
47 144 176 143 76 95 72 88 40 34 40 47 49 111 111 98 165 154 166 
174 185 195 199 196 194 185 119 110 118 128 124 123 113 91 51 58 103 116 
109 73 59 70 116 186 204 206 203 193 160 127 105 123 112 112 122 117 123 
131 137 143 159 172 196 215 218 198 115 109 134 113 80 91 92 75 112 175 
169 143 93 63 50 46 47 47 43 42 41 42 65 76 51 138 174 145 75 
89 79 84 36 36 32 49 90 140 96 148 179 153 175 180 193 196 198 194 
178 116 115 121 119 124 136 137 133 116 86 83 100 116 130 125 118 139 177 
196 202 207 203 176 141 146 127 116 128 118 117 123 127 128 132 141 156 175 
203 220 218 186 113 96 121 137 120 99 105 129 175 177 166 134 92 62 52 
52 45 54 52 42 54 47 68 69 53 123 179 151 84 85 85 81 39 34 
34 56 136 108 120 193 170 166 178 187 198 200 195 178 107 111 122 125 130 
127 140 145 142 137 127 105 101 104 121 133 145 153 161 173 181 183 178 177 
159 145 132 130 131 125 119 120 128 130 127 144 155 176 200 221 218 184 135 
111 109 123 142 141 146 161 166 155 140 107 74 46 63 62 57 56 50 49 
58 52 73 68 52 122 175 159 97 85 95 63 34 33 34 102 139 96 164 
185 167 173 184 193 202 197 181 106 103 117 130 130 133 134 140 142 143 143 
140 126 132 126 106 118 99 125 136 130 135 128 151 167 172 172 163 140 125 
124 122 127 126 130 130 141 152 173 197 220 220 191 171 161 152 140 146 133 
126 138 138 104 86 72 62 57 87 74 55 57 51 47 59 53 71 62 50 
115 167 164 110 77 94 68 32 32 65 141 108 117 183 163 172 179 191 198 
199 185 102 96 111 127 132 136 142 139 141 145 143 143 145 144 144 133 119 
125 105 129 136 129 120 123 147 147 155 159 147 136 123 121 128 130 126 128 
128 140 150 168 194 219 222 194 166 155 144 141 137 117 113 116 111 88 73 
68 85 82 84 75 55 55 45 41 51 55 79 66 51 111 167 169 123 75 
95 69 30 39 125 138 103 151 168 167 176 180 195 202 187 104 83 103 118 
130 133 139 145 144 146 147 150 145 141 143 147 142 139 137 131 133 139 140 
136 148 153 157 151 147 150 147 124 125 133 134 130 128 127 134 152 167 193 
216 222 200 174 162 151 142 135 131 132 125 129 114 93 87 94 97 93 79 
54 57 40 45 47 54 70 65 49 110 161 179 132 76 88 63 32 80 148 
113 121 182 167 173 183 191 202 197 108 83 97 112 121 126 136 142 148 153 
151 149 151 153 153 150 146 141 145 142 142 143 146 149 152 159 163 163 160 
160 162 141 130 132 136 135 130 126 126 129 147 167 194 212 222 207 184 173 
162 155 144 141 138 129 126 120 106 105 104 106 100 83 58 61 42 47 52 
57 66 61 51 106 163 175 135 77 76 62 47 132 129 103 150 175 178 182 
192 202 202 120 73 94 108 112 121 133 133 142 149 151 153 153 159 161 160 
160 158 151 152 158 153 157 161 164 166 168 165 168 161 165 157 141 130 135 
140 137 128 128 128 130 148 164 186 213 222 206 187 181 165 159 155 149 143 
131 130 129 122 115 115 114 105 90 63 62 46 49 51 60 69 64 49 101 
161 180 139 82 78 65 91 145 102 118 172 176 184 191 197 207 140 64 85 
100 112 119 124 130 137 140 147 151 155 158 161 169 161 164 171 170 167 163 
164 163 172 172 170 169 164 168 163 164 152 140 136 142 140 135 130 130 129 
129 146 165 186 211 220 211 190 182 171 162 155 153 148 138 135 128 125 119 
117 110 103 94 62 58 49 50 54 61 65 58 43 95 162 179 149 78 70 
61 139 124 107 159 173 182 190 193 199 163 61 72 90 106 114 123 125 128 
138 139 144 150 157 156 161 171 163 167 171 173 171 167 167 169 171 171 167 
171 170 171 166 158 151 141 138 143 137 132 128 129 128 125 138 156 185 205 
221 214 190 180 176 167 157 151 146 141 135 132 129 124 122 118 110 94 68 
54 46 48 58 56 70 58 40 90 161 179 153 86 63 57 146 101 117 178 
174 191 189 202 187 69 57 74 94 110 117 121 125 128 133 140 144 153 151 
157 162 165 169 166 173 176 171 177 175 172 171 167 169 175 174 172 164 157 
148 145 141 143 141 134 129 133 125 126 136 155 182 205 221 215 198 178 172 
171 161 149 145 139 135 135 132 127 124 121 114 98 68 56 48 53 58 61 
71 51 37 85 160 174 156 96 59 47 123 111 147 179 186 193 200 203 88 
43 60 80 98 114 117 123 127 128 136 140 145 149 149 155 160 167 171 171 
171 179 173 171 177 176 178 176 172 175 175 172 167 159 151 145 148 145 140 
137 132 133 129 129 136 150 177 207 219 214 200 177 167 163 162 155 146 140 
134 133 129 130 127 121 116 98 64 59 45 56 63 62 74 49 43 71 158 
172 157 115 59 52 113 121 171 176 193 193 208 131 37 44 62 90 104 116 
121 124 125 131 132 138 145 145 149 156 161 164 167 171 173 178 179 174 176 
176 174 174 175 177 172 167 162 157 155 149 145 143 141 138 130 131 130 126 
133 150 174 205 218 218 203 179 167 163 160 157 150 141 137 135 129 128 127 
122 117 96 60 59 47 59 57 67 77 50 43 69 155 167 153 136 53 45 
117 150 191 188 187 198 168 45 43 54 65 91 107 118 121 123 124 125 132 
139 142 148 153 151 155 161 169 172 173 178 177 178 181 176 175 171 175 173 
171 166 161 157 151 148 148 147 143 141 133 132 126 130 133 149 168 202 221 
221 205 177 167 162 160 157 149 145 140 135 132 129 128 125 112 90 57 58 
45 57 53 63 82 51 41 61 150 168 136 151 58 42 121 187 187 193 188 
195 74 39 46 51 71 94 111 116 120 126 128 128 133 132 138 145 146 146 
153 161 167 167 172 175 178 178 180 180 173 171 173 171 171 164 159 155 151 
144 144 146 142 136 132 127 127 133 136 146 169 198 218 220 210 179 165 164 
162 155 149 145 142 135 135 128 129 124 110 84 58 54 45 57 52 64 83 
45 37 57 149 166 139 155 67 42 